<mxfile host="app.diagrams.net" modified="2021-04-27T17:33:01.505Z" agent="5.0 (X11; Linux x86_64) AppleWebKit/537.36 (KHTML, like Gecko) Chrome/89.0.4389.105 Safari/537.36" etag="w_sLf9jrG1fgg0knWTbt" version="14.6.6" type="github">
  <diagram id="j65g3bB9W-utepuU1ne9" name="Page-1">
    <mxGraphModel dx="1422" dy="818" grid="1" gridSize="10" guides="1" tooltips="1" connect="1" arrows="1" fold="1" page="1" pageScale="1" pageWidth="1600" pageHeight="900" math="0" shadow="0">
      <root>
        <mxCell id="0" />
        <mxCell id="1" parent="0" />
        <mxCell id="ISbuVDoknW63Z1Gn4mvO-11" value="" style="edgeStyle=orthogonalEdgeStyle;rounded=0;orthogonalLoop=1;jettySize=auto;html=1;endArrow=none;endFill=0;" parent="1" source="ISbuVDoknW63Z1Gn4mvO-7" target="ISbuVDoknW63Z1Gn4mvO-10" edge="1">
          <mxGeometry relative="1" as="geometry" />
        </mxCell>
        <mxCell id="UDJxi3xZnnifPjPwzsYQ-2" style="edgeStyle=orthogonalEdgeStyle;rounded=0;orthogonalLoop=1;jettySize=auto;html=1;entryX=0;entryY=0.5;entryDx=0;entryDy=0;" edge="1" parent="1" source="ISbuVDoknW63Z1Gn4mvO-7" target="UDJxi3xZnnifPjPwzsYQ-1">
          <mxGeometry relative="1" as="geometry">
            <Array as="points">
              <mxPoint x="310" y="560" />
            </Array>
          </mxGeometry>
        </mxCell>
        <mxCell id="ISbuVDoknW63Z1Gn4mvO-7" value="Crawler&lt;div style=&quot;text-align: justify&quot;&gt;&lt;/div&gt;" style="rounded=0;whiteSpace=wrap;html=1;verticalAlign=top;spacingTop=10;" parent="1" vertex="1">
          <mxGeometry x="210" y="390" width="180" height="160" as="geometry" />
        </mxCell>
        <mxCell id="ISbuVDoknW63Z1Gn4mvO-4" value="Text&lt;br&gt;Extract&lt;br&gt;19." style="rounded=0;whiteSpace=wrap;html=1;" parent="1" vertex="1">
          <mxGeometry x="225" y="440" width="70" height="90" as="geometry" />
        </mxCell>
        <mxCell id="ISbuVDoknW63Z1Gn4mvO-6" value="Text&lt;br&gt;Extract&lt;br&gt;-18." style="rounded=0;whiteSpace=wrap;html=1;" parent="1" vertex="1">
          <mxGeometry x="305" y="440" width="70" height="90" as="geometry" />
        </mxCell>
        <mxCell id="ISbuVDoknW63Z1Gn4mvO-12" value="" style="edgeStyle=orthogonalEdgeStyle;rounded=0;orthogonalLoop=1;jettySize=auto;html=1;endArrow=none;endFill=0;entryX=0;entryY=0.5;entryDx=0;entryDy=0;" parent="1" source="ISbuVDoknW63Z1Gn4mvO-10" target="ISbuVDoknW63Z1Gn4mvO-16" edge="1">
          <mxGeometry relative="1" as="geometry">
            <mxPoint x="580" y="470" as="targetPoint" />
          </mxGeometry>
        </mxCell>
        <mxCell id="ISbuVDoknW63Z1Gn4mvO-10" value="befüllen" style="rhombus;whiteSpace=wrap;html=1;" parent="1" vertex="1">
          <mxGeometry x="440" y="440" width="90" height="60" as="geometry" />
        </mxCell>
        <mxCell id="ISbuVDoknW63Z1Gn4mvO-32" style="edgeStyle=orthogonalEdgeStyle;rounded=0;orthogonalLoop=1;jettySize=auto;html=1;entryX=0.5;entryY=1;entryDx=0;entryDy=0;endArrow=none;endFill=0;" parent="1" source="ISbuVDoknW63Z1Gn4mvO-15" target="ISbuVDoknW63Z1Gn4mvO-24" edge="1">
          <mxGeometry relative="1" as="geometry" />
        </mxCell>
        <mxCell id="ISbuVDoknW63Z1Gn4mvO-15" value="Volltextsuche" style="rounded=0;whiteSpace=wrap;html=1;verticalAlign=top;spacingTop=10;" parent="1" vertex="1">
          <mxGeometry x="925" y="470" width="185" height="130" as="geometry" />
        </mxCell>
        <mxCell id="ISbuVDoknW63Z1Gn4mvO-16" value="zentrale&lt;br&gt;MongoDB" style="ellipse;whiteSpace=wrap;html=1;" parent="1" vertex="1">
          <mxGeometry x="580" y="315" width="120" height="70" as="geometry" />
        </mxCell>
        <mxCell id="ISbuVDoknW63Z1Gn4mvO-17" value="invertierter&lt;br&gt;Index" style="ellipse;whiteSpace=wrap;html=1;" parent="1" vertex="1">
          <mxGeometry x="955" y="520" width="120" height="70" as="geometry" />
        </mxCell>
        <mxCell id="ISbuVDoknW63Z1Gn4mvO-23" value="UI" style="rounded=0;whiteSpace=wrap;html=1;" parent="1" vertex="1">
          <mxGeometry x="925" y="160" width="185" height="60" as="geometry" />
        </mxCell>
        <mxCell id="ISbuVDoknW63Z1Gn4mvO-28" value="" style="edgeStyle=orthogonalEdgeStyle;rounded=0;orthogonalLoop=1;jettySize=auto;html=1;endArrow=none;endFill=0;" parent="1" source="ISbuVDoknW63Z1Gn4mvO-24" target="ISbuVDoknW63Z1Gn4mvO-23" edge="1">
          <mxGeometry relative="1" as="geometry" />
        </mxCell>
        <mxCell id="ISbuVDoknW63Z1Gn4mvO-24" value="P2P" style="rounded=0;whiteSpace=wrap;html=1;verticalAlign=top;spacingTop=10;" parent="1" vertex="1">
          <mxGeometry x="925" y="270" width="185" height="150" as="geometry" />
        </mxCell>
        <mxCell id="ISbuVDoknW63Z1Gn4mvO-25" value="Framework" style="rounded=0;whiteSpace=wrap;html=1;" parent="1" vertex="1">
          <mxGeometry x="970" y="365" width="95" height="40" as="geometry" />
        </mxCell>
        <mxCell id="ISbuVDoknW63Z1Gn4mvO-26" value="Logik" style="rounded=0;whiteSpace=wrap;html=1;" parent="1" vertex="1">
          <mxGeometry x="970" y="315" width="95" height="40" as="geometry" />
        </mxCell>
        <mxCell id="ISbuVDoknW63Z1Gn4mvO-35" style="edgeStyle=orthogonalEdgeStyle;rounded=0;orthogonalLoop=1;jettySize=auto;html=1;endArrow=none;endFill=0;" parent="1" source="ISbuVDoknW63Z1Gn4mvO-34" target="ISbuVDoknW63Z1Gn4mvO-23" edge="1">
          <mxGeometry relative="1" as="geometry" />
        </mxCell>
        <mxCell id="ISbuVDoknW63Z1Gn4mvO-36" style="edgeStyle=orthogonalEdgeStyle;rounded=0;orthogonalLoop=1;jettySize=auto;html=1;endArrow=none;endFill=0;" parent="1" source="ISbuVDoknW63Z1Gn4mvO-34" target="ISbuVDoknW63Z1Gn4mvO-16" edge="1">
          <mxGeometry relative="1" as="geometry" />
        </mxCell>
        <mxCell id="ISbuVDoknW63Z1Gn4mvO-34" value="Rede&lt;br&gt;anzeigen" style="rhombus;whiteSpace=wrap;html=1;" parent="1" vertex="1">
          <mxGeometry x="575" y="155" width="130" height="70" as="geometry" />
        </mxCell>
        <mxCell id="UDJxi3xZnnifPjPwzsYQ-3" style="edgeStyle=orthogonalEdgeStyle;rounded=0;orthogonalLoop=1;jettySize=auto;html=1;entryX=0;entryY=0.5;entryDx=0;entryDy=0;" edge="1" parent="1" source="UDJxi3xZnnifPjPwzsYQ-1" target="ISbuVDoknW63Z1Gn4mvO-24">
          <mxGeometry relative="1" as="geometry">
            <mxPoint x="840" y="440" as="targetPoint" />
          </mxGeometry>
        </mxCell>
        <mxCell id="UDJxi3xZnnifPjPwzsYQ-1" value="Token übergeben&lt;br&gt;zum generien des Index" style="rhombus;whiteSpace=wrap;html=1;" vertex="1" parent="1">
          <mxGeometry x="550" y="500" width="230" height="120" as="geometry" />
        </mxCell>
      </root>
    </mxGraphModel>
  </diagram>
</mxfile>
